<mxfile host="app.diagrams.net" modified="2020-06-24T09:01:10.405Z" agent="5.0 (Windows NT 10.0; Win64; x64) AppleWebKit/537.36 (KHTML, like Gecko) Chrome/83.0.4103.97 Safari/537.36" etag="1sIwtR3sM_rzNvaIWIyN" version="13.3.0" type="github">
  <diagram id="bOPLnA5verhTb6FBulm6" name="Page-1">
    <mxGraphModel dx="1038" dy="548" grid="1" gridSize="10" guides="1" tooltips="1" connect="1" arrows="1" fold="1" page="1" pageScale="1" pageWidth="827" pageHeight="1169" math="0" shadow="0">
      <root>
        <mxCell id="0" />
        <mxCell id="1" parent="0" />
        <mxCell id="OGKaaO7gljy_H0FNsDia-26" value="eu-west-1" style="points=[[0,0],[0.25,0],[0.5,0],[0.75,0],[1,0],[1,0.25],[1,0.5],[1,0.75],[1,1],[0.75,1],[0.5,1],[0.25,1],[0,1],[0,0.75],[0,0.5],[0,0.25]];outlineConnect=0;gradientColor=none;html=1;whiteSpace=wrap;fontSize=12;fontStyle=0;shape=mxgraph.aws4.group;grIcon=mxgraph.aws4.group_region;strokeColor=#147EBA;fillColor=none;verticalAlign=top;align=left;spacingLeft=30;fontColor=#147EBA;dashed=0;" parent="1" vertex="1">
          <mxGeometry x="20" y="20" width="860" height="520" as="geometry" />
        </mxCell>
        <mxCell id="OGKaaO7gljy_H0FNsDia-19" value="VPC" style="points=[[0,0],[0.25,0],[0.5,0],[0.75,0],[1,0],[1,0.25],[1,0.5],[1,0.75],[1,1],[0.75,1],[0.5,1],[0.25,1],[0,1],[0,0.75],[0,0.5],[0,0.25]];outlineConnect=0;gradientColor=none;html=1;whiteSpace=wrap;fontSize=12;fontStyle=0;shape=mxgraph.aws4.group;grIcon=mxgraph.aws4.group_vpc;strokeColor=#248814;fillColor=none;verticalAlign=top;align=left;spacingLeft=30;fontColor=#AAB7B8;dashed=0;" parent="1" vertex="1">
          <mxGeometry x="295" y="69" width="575" height="450" as="geometry" />
        </mxCell>
        <mxCell id="OGKaaO7gljy_H0FNsDia-5" style="edgeStyle=orthogonalEdgeStyle;rounded=0;orthogonalLoop=1;jettySize=auto;html=1;" parent="1" source="OGKaaO7gljy_H0FNsDia-1" target="OGKaaO7gljy_H0FNsDia-20" edge="1">
          <mxGeometry relative="1" as="geometry">
            <mxPoint x="210" y="279.5" as="targetPoint" />
          </mxGeometry>
        </mxCell>
        <mxCell id="OGKaaO7gljy_H0FNsDia-1" value="" style="shape=image;html=1;verticalAlign=top;verticalLabelPosition=bottom;labelBackgroundColor=#ffffff;imageAspect=0;aspect=fixed;image=https://cdn4.iconfinder.com/data/icons/logos-and-brands/512/381_Word_logo-128.png" parent="1" vertex="1">
          <mxGeometry x="50" y="244.5" width="70" height="70" as="geometry" />
        </mxCell>
        <mxCell id="OGKaaO7gljy_H0FNsDia-6" style="edgeStyle=orthogonalEdgeStyle;rounded=0;orthogonalLoop=1;jettySize=auto;html=1;" parent="1" target="OGKaaO7gljy_H0FNsDia-4" edge="1">
          <mxGeometry relative="1" as="geometry">
            <mxPoint x="270" y="279.5" as="sourcePoint" />
          </mxGeometry>
        </mxCell>
        <mxCell id="OGKaaO7gljy_H0FNsDia-3" value="" style="outlineConnect=0;fontColor=#232F3E;gradientColor=#60A337;gradientDirection=north;fillColor=#277116;strokeColor=#ffffff;dashed=0;verticalLabelPosition=bottom;verticalAlign=top;align=center;html=1;fontSize=12;fontStyle=0;aspect=fixed;shape=mxgraph.aws4.resourceIcon;resIcon=mxgraph.aws4.s3;" parent="1" vertex="1">
          <mxGeometry x="360" y="400" width="60" height="60" as="geometry" />
        </mxCell>
        <mxCell id="OGKaaO7gljy_H0FNsDia-7" style="edgeStyle=orthogonalEdgeStyle;rounded=0;orthogonalLoop=1;jettySize=auto;html=1;entryX=0.5;entryY=0;entryDx=0;entryDy=0;" parent="1" source="OGKaaO7gljy_H0FNsDia-4" target="OGKaaO7gljy_H0FNsDia-1" edge="1">
          <mxGeometry relative="1" as="geometry">
            <Array as="points">
              <mxPoint x="391" y="229" />
              <mxPoint x="85" y="229" />
            </Array>
          </mxGeometry>
        </mxCell>
        <mxCell id="OGKaaO7gljy_H0FNsDia-8" value="ResponsePayload" style="edgeLabel;html=1;align=center;verticalAlign=middle;resizable=0;points=[];" parent="OGKaaO7gljy_H0FNsDia-7" vertex="1" connectable="0">
          <mxGeometry x="-0.1906" y="3" relative="1" as="geometry">
            <mxPoint x="-13.5" y="-12" as="offset" />
          </mxGeometry>
        </mxCell>
        <mxCell id="OGKaaO7gljy_H0FNsDia-27" style="edgeStyle=orthogonalEdgeStyle;rounded=0;orthogonalLoop=1;jettySize=auto;html=1;startArrow=none;startFill=0;strokeColor=#000000;endArrow=blockThin;endFill=1;" parent="1" source="OGKaaO7gljy_H0FNsDia-4" target="OGKaaO7gljy_H0FNsDia-3" edge="1">
          <mxGeometry relative="1" as="geometry" />
        </mxCell>
        <mxCell id="_8iSbfzBUDTS4Cw4Q2aD-4" style="edgeStyle=orthogonalEdgeStyle;rounded=0;orthogonalLoop=1;jettySize=auto;html=1;" edge="1" parent="1" source="OGKaaO7gljy_H0FNsDia-4" target="_8iSbfzBUDTS4Cw4Q2aD-16">
          <mxGeometry relative="1" as="geometry">
            <mxPoint x="520" y="279" as="targetPoint" />
          </mxGeometry>
        </mxCell>
        <mxCell id="_8iSbfzBUDTS4Cw4Q2aD-15" value="New Operation" style="edgeLabel;html=1;align=center;verticalAlign=middle;resizable=0;points=[];" vertex="1" connectable="0" parent="_8iSbfzBUDTS4Cw4Q2aD-4">
          <mxGeometry x="-0.2563" y="-1" relative="1" as="geometry">
            <mxPoint x="6" y="-10.5" as="offset" />
          </mxGeometry>
        </mxCell>
        <mxCell id="OGKaaO7gljy_H0FNsDia-4" value="GenerateOperation" style="outlineConnect=0;fontColor=#232F3E;gradientColor=none;fillColor=#D05C17;strokeColor=none;dashed=0;verticalLabelPosition=bottom;verticalAlign=top;align=center;html=1;fontSize=12;fontStyle=0;aspect=fixed;pointerEvents=1;shape=mxgraph.aws4.lambda_function;" parent="1" vertex="1">
          <mxGeometry x="360" y="249" width="61" height="61" as="geometry" />
        </mxCell>
        <mxCell id="_8iSbfzBUDTS4Cw4Q2aD-10" style="edgeStyle=orthogonalEdgeStyle;rounded=0;orthogonalLoop=1;jettySize=auto;html=1;startArrow=none;startFill=0;endArrow=blockThin;endFill=1;" edge="1" parent="1" source="OGKaaO7gljy_H0FNsDia-10" target="_8iSbfzBUDTS4Cw4Q2aD-16">
          <mxGeometry relative="1" as="geometry">
            <mxPoint x="545" y="309" as="targetPoint" />
            <Array as="points">
              <mxPoint x="771" y="370" />
              <mxPoint x="540" y="370" />
            </Array>
          </mxGeometry>
        </mxCell>
        <mxCell id="_8iSbfzBUDTS4Cw4Q2aD-14" value="Update state" style="edgeLabel;html=1;align=center;verticalAlign=middle;resizable=0;points=[];" vertex="1" connectable="0" parent="_8iSbfzBUDTS4Cw4Q2aD-10">
          <mxGeometry x="0.088" y="3" relative="1" as="geometry">
            <mxPoint y="-13" as="offset" />
          </mxGeometry>
        </mxCell>
        <mxCell id="_8iSbfzBUDTS4Cw4Q2aD-11" style="edgeStyle=orthogonalEdgeStyle;rounded=0;orthogonalLoop=1;jettySize=auto;html=1;startArrow=none;startFill=0;endArrow=blockThin;endFill=1;" edge="1" parent="1" source="OGKaaO7gljy_H0FNsDia-10" target="OGKaaO7gljy_H0FNsDia-22">
          <mxGeometry relative="1" as="geometry" />
        </mxCell>
        <mxCell id="_8iSbfzBUDTS4Cw4Q2aD-12" style="edgeStyle=orthogonalEdgeStyle;rounded=0;orthogonalLoop=1;jettySize=auto;html=1;startArrow=none;startFill=0;endArrow=blockThin;endFill=1;" edge="1" parent="1" source="OGKaaO7gljy_H0FNsDia-10" target="OGKaaO7gljy_H0FNsDia-3">
          <mxGeometry relative="1" as="geometry">
            <Array as="points">
              <mxPoint x="830" y="280" />
              <mxPoint x="830" y="490" />
              <mxPoint x="390" y="490" />
            </Array>
          </mxGeometry>
        </mxCell>
        <mxCell id="_8iSbfzBUDTS4Cw4Q2aD-13" value="Read document" style="edgeLabel;html=1;align=center;verticalAlign=middle;resizable=0;points=[];" vertex="1" connectable="0" parent="_8iSbfzBUDTS4Cw4Q2aD-12">
          <mxGeometry x="0.3319" y="-1" relative="1" as="geometry">
            <mxPoint y="-9" as="offset" />
          </mxGeometry>
        </mxCell>
        <mxCell id="OGKaaO7gljy_H0FNsDia-10" value="Processor" style="outlineConnect=0;fontColor=#232F3E;gradientColor=none;fillColor=#D05C17;strokeColor=none;dashed=0;verticalLabelPosition=bottom;verticalAlign=top;align=center;html=1;fontSize=12;fontStyle=0;aspect=fixed;pointerEvents=1;shape=mxgraph.aws4.lambda_function;" parent="1" vertex="1">
          <mxGeometry x="740" y="249" width="61" height="61" as="geometry" />
        </mxCell>
        <mxCell id="_8iSbfzBUDTS4Cw4Q2aD-5" style="edgeStyle=orthogonalEdgeStyle;rounded=0;orthogonalLoop=1;jettySize=auto;html=1;" edge="1" parent="1" source="_8iSbfzBUDTS4Cw4Q2aD-16" target="_8iSbfzBUDTS4Cw4Q2aD-2">
          <mxGeometry relative="1" as="geometry">
            <mxPoint x="570" y="279" as="sourcePoint" />
          </mxGeometry>
        </mxCell>
        <mxCell id="_8iSbfzBUDTS4Cw4Q2aD-3" style="edgeStyle=orthogonalEdgeStyle;rounded=0;orthogonalLoop=1;jettySize=auto;html=1;" edge="1" parent="1" source="OGKaaO7gljy_H0FNsDia-15" target="_8iSbfzBUDTS4Cw4Q2aD-16">
          <mxGeometry relative="1" as="geometry">
            <mxPoint x="545" y="249" as="targetPoint" />
            <Array as="points">
              <mxPoint x="530" y="131" />
            </Array>
          </mxGeometry>
        </mxCell>
        <mxCell id="OGKaaO7gljy_H0FNsDia-15" value="OperationState" style="outlineConnect=0;fontColor=#232F3E;gradientColor=none;fillColor=#D05C17;strokeColor=none;dashed=0;verticalLabelPosition=bottom;verticalAlign=top;align=center;html=1;fontSize=12;fontStyle=0;aspect=fixed;pointerEvents=1;shape=mxgraph.aws4.lambda_function;" parent="1" vertex="1">
          <mxGeometry x="360" y="100" width="61" height="61" as="geometry" />
        </mxCell>
        <mxCell id="_8iSbfzBUDTS4Cw4Q2aD-1" style="edgeStyle=orthogonalEdgeStyle;rounded=0;orthogonalLoop=1;jettySize=auto;html=1;" edge="1" parent="1" source="OGKaaO7gljy_H0FNsDia-20" target="OGKaaO7gljy_H0FNsDia-15">
          <mxGeometry relative="1" as="geometry">
            <Array as="points">
              <mxPoint x="241" y="131" />
            </Array>
          </mxGeometry>
        </mxCell>
        <mxCell id="OGKaaO7gljy_H0FNsDia-20" value="" style="outlineConnect=0;fontColor=#232F3E;gradientColor=#945DF2;gradientDirection=north;fillColor=#5A30B5;strokeColor=#ffffff;dashed=0;verticalLabelPosition=bottom;verticalAlign=top;align=center;html=1;fontSize=12;fontStyle=0;aspect=fixed;shape=mxgraph.aws4.resourceIcon;resIcon=mxgraph.aws4.api_gateway;" parent="1" vertex="1">
          <mxGeometry x="210" y="249" width="61" height="61" as="geometry" />
        </mxCell>
        <mxCell id="_8iSbfzBUDTS4Cw4Q2aD-17" style="edgeStyle=orthogonalEdgeStyle;rounded=0;orthogonalLoop=1;jettySize=auto;html=1;startArrow=none;startFill=0;endArrow=blockThin;endFill=1;" edge="1" parent="1" source="OGKaaO7gljy_H0FNsDia-22" target="_8iSbfzBUDTS4Cw4Q2aD-16">
          <mxGeometry relative="1" as="geometry">
            <Array as="points">
              <mxPoint x="550" y="130" />
            </Array>
          </mxGeometry>
        </mxCell>
        <mxCell id="_8iSbfzBUDTS4Cw4Q2aD-18" value="Get CSV" style="edgeLabel;html=1;align=center;verticalAlign=middle;resizable=0;points=[];" vertex="1" connectable="0" parent="_8iSbfzBUDTS4Cw4Q2aD-17">
          <mxGeometry x="-0.5257" relative="1" as="geometry">
            <mxPoint y="-10" as="offset" />
          </mxGeometry>
        </mxCell>
        <mxCell id="OGKaaO7gljy_H0FNsDia-22" value="TextAnalitics&lt;br&gt;" style="outlineConnect=0;fontColor=#232F3E;gradientColor=none;fillColor=#D05C17;strokeColor=none;dashed=0;verticalLabelPosition=bottom;verticalAlign=top;align=center;html=1;fontSize=12;fontStyle=0;aspect=fixed;pointerEvents=1;shape=mxgraph.aws4.lambda_function;" parent="1" vertex="1">
          <mxGeometry x="740" y="101" width="60" height="60" as="geometry" />
        </mxCell>
        <mxCell id="_8iSbfzBUDTS4Cw4Q2aD-7" style="edgeStyle=orthogonalEdgeStyle;rounded=0;orthogonalLoop=1;jettySize=auto;html=1;startArrow=none;startFill=0;endArrow=blockThin;endFill=1;" edge="1" parent="1" source="_8iSbfzBUDTS4Cw4Q2aD-2" target="OGKaaO7gljy_H0FNsDia-10">
          <mxGeometry relative="1" as="geometry" />
        </mxCell>
        <mxCell id="_8iSbfzBUDTS4Cw4Q2aD-2" value="Stream" style="outlineConnect=0;fontColor=#232F3E;gradientColor=none;fillColor=#3334B9;strokeColor=none;dashed=0;verticalLabelPosition=bottom;verticalAlign=top;align=center;html=1;fontSize=12;fontStyle=0;aspect=fixed;pointerEvents=1;shape=mxgraph.aws4.attributes;" vertex="1" parent="1">
          <mxGeometry x="630" y="251" width="56" height="56" as="geometry" />
        </mxCell>
        <mxCell id="_8iSbfzBUDTS4Cw4Q2aD-16" value="Gaia-DB" style="outlineConnect=0;fontColor=#232F3E;gradientColor=#4D72F3;gradientDirection=north;fillColor=#3334B9;strokeColor=#ffffff;dashed=0;verticalLabelPosition=bottom;verticalAlign=top;align=center;html=1;fontSize=12;fontStyle=0;aspect=fixed;shape=mxgraph.aws4.resourceIcon;resIcon=mxgraph.aws4.dynamodb;" vertex="1" parent="1">
          <mxGeometry x="510" y="249.5" width="60" height="60" as="geometry" />
        </mxCell>
      </root>
    </mxGraphModel>
  </diagram>
</mxfile>
